<svg id="Layer_1" data-name="Layer 1" xmlns="http://www.w3.org/2000/svg" viewBox="0 0 178.67 93.94"><defs><style>.cls-1{fill:#415a68;}.cls-2{fill:#d89218;}.cls-10,.cls-11,.cls-12,.cls-13,.cls-15,.cls-16,.cls-17,.cls-18,.cls-19,.cls-20,.cls-21,.cls-22,.cls-3,.cls-5,.cls-7,.cls-9{fill:none;}.cls-10,.cls-11,.cls-17,.cls-18,.cls-19,.cls-20,.cls-3,.cls-8,.cls-9{stroke:#d89218;}.cls-12,.cls-13,.cls-14,.cls-15,.cls-16,.cls-17,.cls-18,.cls-19,.cls-20,.cls-21,.cls-22,.cls-3,.cls-5,.cls-7{stroke-miterlimit:10;}.cls-3,.cls-5,.cls-7{stroke-width:1.04px;}.cls-4{fill:#9a246a;}.cls-12,.cls-22,.cls-5{stroke:#9a246a;}.cls-14,.cls-6{fill:#8dc63f;}.cls-13,.cls-14,.cls-15,.cls-16,.cls-21,.cls-7{stroke:#8dc63f;}.cls-8{fill:#fff;}.cls-10,.cls-11,.cls-8,.cls-9{stroke-linejoin:round;}.cls-8,.cls-9{stroke-width:1.5px;}.cls-10,.cls-11,.cls-12,.cls-15,.cls-16{stroke-width:0.75px;}.cls-11,.cls-12,.cls-16,.cls-17,.cls-18,.cls-19,.cls-20,.cls-21,.cls-22{stroke-linecap:round;}.cls-14{stroke-width:0.25px;}.cls-17,.cls-18,.cls-19,.cls-20,.cls-21,.cls-22{stroke-width:2px;}.cls-18{stroke-dasharray:0 3.44;}.cls-19{stroke-dasharray:0 2.92;}.cls-20,.cls-21,.cls-22{stroke-dasharray:0 4;}</style></defs><title>Products_Publish Timetable Information</title><path class="cls-1" d="M100,13.25a2.49,2.49,0,0,0-2.48-2.31H2.5A2.49,2.49,0,0,0,0,13.25L0,77.44a2.5,2.5,0,0,0,2.5,2.5h95a2.5,2.5,0,0,0,2.5-2.5ZM96,67.94H4v-53H96Z"/><path class="cls-1" d="M66,91.94c-4-1-5-4-5-8v-1H39v1c0,4-1,7-5,8-1,.24-1,2,0,2H66C67,93.94,67,92.18,66,91.94Z"/><rect class="cls-2" x="8.31" y="19.57" width="13.2" height="12.26"/><path class="cls-2" d="M90,20.58V30.81H22.32V20.58H90m1-1H21.31V31.82H91V19.57Z"/><line class="cls-3" x1="21.52" y1="25.69" x2="90.42" y2="25.69"/><line class="cls-3" x1="38.85" y1="20.33" x2="38.85" y2="31.06"/><line class="cls-3" x1="56.17" y1="20.33" x2="56.17" y2="31.06"/><line class="cls-3" x1="73.61" y1="20.24" x2="73.61" y2="31.73"/><rect class="cls-4" x="8.31" y="34.95" width="13.2" height="12.26"/><path class="cls-4" d="M90,36V46.19H22.32V36H90m1-1H21.31V47.21H91V35Z"/><line class="cls-5" x1="21.52" y1="41.08" x2="90.42" y2="41.08"/><line class="cls-5" x1="38.85" y1="35.71" x2="38.85" y2="46.45"/><line class="cls-5" x1="56.17" y1="35.71" x2="56.17" y2="46.45"/><line class="cls-5" x1="73.61" y1="35.62" x2="73.61" y2="47.12"/><rect class="cls-6" x="8.31" y="50.56" width="13.2" height="12.26"/><path class="cls-6" d="M90,51.57V61.8H22.32V51.57H90m1-1H21.31V62.82H91V50.56Z"/><line class="cls-7" x1="21.52" y1="56.69" x2="90.42" y2="56.69"/><line class="cls-7" x1="38.85" y1="51.32" x2="38.85" y2="62.05"/><line class="cls-7" x1="56.17" y1="51.32" x2="56.17" y2="62.05"/><line class="cls-7" x1="73.61" y1="51.23" x2="73.61" y2="62.73"/><polygon class="cls-8" points="121.47 6.7 121.47 24.15 138.24 32.89 155 24.12 155 6.64 138.24 9.35 121.47 6.7"/><polyline class="cls-9" points="128.26 22.89 128.26 11.51 133.68 12.14 133.68 21.95"/><polyline class="cls-10" points="121.47 24.15 138.23 21.23 138.23 9.54"/><line class="cls-10" x1="154.62" y1="24.15" x2="138.23" y2="21.22"/><polygon class="cls-10" points="141.73 12.18 150.9 11.21 150.9 17.93 141.73 17.45 141.73 12.18"/><line class="cls-11" x1="146.78" y1="13.11" x2="149.51" y2="12.88"/><line class="cls-11" x1="146.78" y1="14.11" x2="149.51" y2="13.98"/><line class="cls-11" x1="146.78" y1="15.11" x2="149.51" y2="15.11"/><line class="cls-11" x1="146.78" y1="16.18" x2="149.51" y2="16.26"/><polygon class="cls-11" points="145.52 14.82 143.05 14.82 143.05 13.32 145.52 13.14 145.52 14.82"/><path class="cls-4" d="M165.16,30.43c2.77,0,4.46,1.53,5.17,4.56,0,.21.08.42.11.61s.09.54.2,1l-.64-.18A4.4,4.4,0,0,1,167.23,34l-1.1-2.35-1.49,2.12a5.57,5.57,0,0,1-4.08,2l-.73.08c0-.11,0-.2,0-.28s.06-.4.11-.61c.71-3,2.41-4.53,5.18-4.57m5.92,7.48a9.73,9.73,0,0,0,2.51,3.69,6.93,6.93,0,0,1-4,1.8A5.86,5.86,0,0,0,171,40l.1-2.09m-11.84,0,.1,2.1a5.81,5.81,0,0,0,1.36,3.38,6.91,6.91,0,0,1-4-1.79,9.72,9.72,0,0,0,2.51-3.69m1.56,9.35.39.53a4.91,4.91,0,0,0,1.09,1.09l.12.08q-.4,0-.81,0h-4.38a11.22,11.22,0,0,1,3.59-1.67m8.73,0a11.17,11.17,0,0,1,3.59,1.66h-4.38q-.4,0-.8,0a4.9,4.9,0,0,0,1.21-1.17l.39-.53m-4.37-18.33c-2.43,0-5.53,1-6.64,5.73-.06.25-.1.5-.13.73a9,9,0,0,1-2.9,5.3,1.18,1.18,0,0,0-.43.83,1.16,1.16,0,0,0,.3.86,8.46,8.46,0,0,0,5.72,2.55v.71c-1.91.45-5.92,1.74-6.71,4.79h7.2a7.38,7.38,0,0,1,3.58.93,7.38,7.38,0,0,1,3.58-.93h7.2c-.79-3-4.8-4.34-6.71-4.79v-.71A8.46,8.46,0,0,0,175,42.37a1.16,1.16,0,0,0,.3-.86,1.18,1.18,0,0,0-.43-.83,9,9,0,0,1-2.9-5.3c0-.23-.07-.47-.13-.73-1.1-4.67-4.21-5.69-6.64-5.72Zm0,19.39a3.42,3.42,0,0,1-2.76-1.41,1.7,1.7,0,0,0,.5-1.2v-.85l.28,0a.67.67,0,0,0,.57-.66.68.68,0,0,0-.4-.61,4.32,4.32,0,0,1-2.5-3.65l-.13-2.61a7,7,0,0,0,5.15-2.67,5.9,5.9,0,0,0,3.72,3.17l-.1,2.11a4.32,4.32,0,0,1-2.5,3.63.68.68,0,0,0-.4.61.67.67,0,0,0,.57.67l.3,0v.85a1.7,1.7,0,0,0,.49,1.19,3.41,3.41,0,0,1-2.77,1.41Z"/><path class="cls-4" d="M177.76,53.2v-.92a.73.73,0,0,0-.73-.72h-8.29a5.94,5.94,0,0,0-3.58,1.19,5.94,5.94,0,0,0-3.58-1.2h-8.29a.72.72,0,0,0-.72.72v.92a.91.91,0,0,0,0,1.82h9.36a.66.66,0,0,1,.66.66.28.28,0,0,0,.28.28h4.59a.28.28,0,0,0,.28-.28.66.66,0,0,1,.66-.66h9.36a.91.91,0,0,0,0-1.82Zm-13.47.28h-11V52.35h8.33a4.56,4.56,0,0,1,2.77.93.11.11,0,0,1-.06.2Zm12.75,0H166a.11.11,0,0,1-.06-.19,4.56,4.56,0,0,1,2.77-.93H177Z"/><path class="cls-12" d="M163.34,41.62a2.73,2.73,0,0,0,3.41,0"/><path class="cls-12" d="M162.05,38.63a1.79,1.79,0,0,0,2.23,0"/><circle class="cls-4" cx="163.16" cy="39.54" r="0.51"/><path class="cls-12" d="M166,38.63a1.79,1.79,0,0,0,2.23,0"/><circle class="cls-4" cx="167.08" cy="39.54" r="0.51"/><path class="cls-13" d="M129.08,65.11a4.83,4.83,0,0,0-4.44,2.12,7.39,7.39,0,0,0-1,3.43c-.59,0-1,.8-1,1.22a2.39,2.39,0,0,0,1.21,1.71h0a9.5,9.5,0,0,0,1.17,2.75,5.6,5.6,0,0,0,2.71,2.35,13.2,13.2,0,0,0-5.61,1.75c-1.88,1.14-3.17,2.8-3.15,4.78a25.5,25.5,0,0,0,.1,4.54,2.67,2.67,0,0,0,.83,1.55,2.78,2.78,0,0,0,1.9.56c3.2,0,11.07,0,14.37,0a2.93,2.93,0,0,0,1.93-.57,2.64,2.64,0,0,0,.84-1.53,24.25,24.25,0,0,0,.11-4.52c0-2-1.3-3.66-3.19-4.81a13.18,13.18,0,0,0-5.55-1.75,5.61,5.61,0,0,0,2.78-2.4,9.58,9.58,0,0,0,1.15-2.71,2.5,2.5,0,0,0,1.17-1.71,1.39,1.39,0,0,0-.89-1.21,6.64,6.64,0,0,0-.21-1.7,2.65,2.65,0,0,0-1.66-1.84s-.07-.06-.15-.24a3.08,3.08,0,0,0-.4-.73c-.42-.54-1.26-1-3-1Zm1.6,26.2h-3.87c-2,0-3.82,0-5,0a2.22,2.22,0,0,1-1.53-.42,2.09,2.09,0,0,1-.63-1.22,26.85,26.85,0,0,1-.09-4.43c0-1.82,1.57-3.47,2.87-4.28a15.17,15.17,0,0,1,3.68-1.4h0l.64-.13a13.88,13.88,0,0,1,2.25-.19h0a13.81,13.81,0,0,1,2.28.2l.64.12a11.93,11.93,0,0,1,3.64,1.4c1.78,1.08,2.92,2.58,2.92,4.32a25.47,25.47,0,0,1-.1,4.39,2,2,0,0,1-.64,1.21,2.35,2.35,0,0,1-1.56.44h-5.52Z"/><path class="cls-14" d="M131.26,91.3l-1.32-7.77.63-.21a.3.3,0,0,0,.2-.31l-.27-2.19,1.44-1.3-.64-.12L130,80.47h-2l-1.27-1.06-.64.13,1.45,1.3L127.31,83a.3.3,0,0,0,.2.31l.63.21-1.32,7.78h.58l1.35-7.92a.3.3,0,0,0-.19-.32l-.64-.22.22-1.81h1.8l.22,1.81-.64.22a.3.3,0,0,0-.19.32l1.35,7.92Z"/><path class="cls-15" d="M134,71a11.36,11.36,0,0,1-1.34,5,4.41,4.41,0,0,1-3.54,2.36A4.31,4.31,0,0,1,125.54,76a8.79,8.79,0,0,1-1.35-4.57c0-.12,0-.82,0-.94"/><path class="cls-15" d="M129.07,65.68c1.68,0,2.3.43,2.6.82a2.63,2.63,0,0,1,.32.6.89.89,0,0,0,.48.56,2,2,0,0,1,1.3,1.47,5.85,5.85,0,0,1,.15,1.89,2.42,2.42,0,0,1-1.39-.85A21,21,0,0,0,131,68.38a.28.28,0,0,0-.42,0,5.57,5.57,0,0,1-2.94,1.5c-1.1.26-2.31.41-3.4.61a6.77,6.77,0,0,1,.9-3,4.18,4.18,0,0,1,3.94-1.85Z"/><polyline class="cls-15" points="127.71 83 129.03 83.58 130.31 83"/><path class="cls-16" d="M129.09,63.84V63a1.15,1.15,0,0,1,1.14-1.14h22.62A1.15,1.15,0,0,1,154,63V80.23a1.15,1.15,0,0,1-1.14,1.14H139.12"/><line class="cls-16" x1="136.87" y1="67.67" x2="151.31" y2="67.67"/><line class="cls-16" x1="138.44" y1="69.67" x2="151.31" y2="69.67"/><line class="cls-16" x1="139.87" y1="71.67" x2="151.31" y2="71.67"/><line class="cls-16" x1="138.44" y1="73.67" x2="151.31" y2="73.67"/><line class="cls-16" x1="136.87" y1="75.67" x2="151.31" y2="75.67"/><line class="cls-17" x1="103" y1="26.69" x2="103" y2="26.69"/><line class="cls-18" x1="106.44" y1="26.69" x2="108.16" y2="26.69"/><line class="cls-17" x1="109.87" y1="26.69" x2="109.87" y2="26.69"/><line class="cls-19" x1="109.87" y1="23.76" x2="109.87" y2="22.3"/><line class="cls-17" x1="109.87" y1="20.84" x2="109.87" y2="20.84"/><line class="cls-20" x1="113.87" y1="20.84" x2="115.87" y2="20.84"/><line class="cls-17" x1="117.87" y1="20.84" x2="117.87" y2="20.84"/><polyline class="cls-21" points="103 56.98 110.98 56.98 110.98 72.67 119.54 72.67"/><line class="cls-22" x1="103" y1="41.37" x2="154.26" y2="41.37"/><path class="cls-1" d="M6.34,4.42V.07h.92V4.42Z"/><path class="cls-1" d="M12.22,4.42H11L9.15,1.13h0q.06.87.06,1.25v2H8.36V.07H9.52l1.89,3.26h0q0-.85,0-1.2V.07h.83Z"/><path class="cls-1" d="M16.93,2.2a2.14,2.14,0,0,1-.61,1.65,2.5,2.5,0,0,1-1.77.57H13.31V.07h1.37a2.3,2.3,0,0,1,1.66.56A2.07,2.07,0,0,1,16.93,2.2Zm-1,0q0-1.4-1.24-1.4h-.49V3.66h.4Q16,3.66,16,2.23Z"/><path class="cls-1" d="M17.83,4.42V.07h.92V4.42Z"/><path class="cls-1" d="M22.33.07h.93L21.79,4.42h-1L19.3.07h.93l.82,2.59q.07.23.14.53c0,.2.08.34.09.42a7.57,7.57,0,0,1,.22-1Z"/><path class="cls-1" d="M23.81,4.42V.07h.92V4.42Z"/><path class="cls-1" d="M29.45,2.2a2.14,2.14,0,0,1-.61,1.65,2.5,2.5,0,0,1-1.77.57H25.83V.07H27.2a2.3,2.3,0,0,1,1.66.56A2.07,2.07,0,0,1,29.45,2.2Zm-1,0q0-1.4-1.24-1.4h-.49V3.66h.4Q28.49,3.66,28.49,2.23Z"/><path class="cls-1" d="M33.89.07V2.89a1.62,1.62,0,0,1-.22.85,1.41,1.41,0,0,1-.62.56,2.23,2.23,0,0,1-1,.19,1.85,1.85,0,0,1-1.3-.43,1.53,1.53,0,0,1-.46-1.18V.07h.92V2.73a1.11,1.11,0,0,0,.2.74.84.84,0,0,0,.67.24.82.82,0,0,0,.66-.24,1.12,1.12,0,0,0,.2-.74V.07Z"/><path class="cls-1" d="M37.63,4.42l-.32-1H35.72l-.32,1h-1L35.95.05h1.13l1.54,4.37Zm-.54-1.81L36.6,1c0-.12-.06-.22-.08-.29q-.1.38-.56,1.89Z"/><path class="cls-1" d="M39.17,4.42V.07h.92V3.66h1.77v.76Z"/><path class="cls-1" d="M45.88,4.42H45V.84H43.77V.07h3.29V.84H45.88Z"/><path class="cls-1" d="M47.73,4.42V.07h.92V4.42Z"/><path class="cls-1" d="M51.59,4.42,50.55,1h0q.06,1,.06,1.39v2h-.83V.07H51L52,3.4h0L53.15.07h1.26V4.42h-.86V2.36q0-.15,0-.34t0-1h0L52.44,4.42Z"/><path class="cls-1" d="M58,4.42H55.5V.07H58V.82H56.43v1H57.9v.76H56.43V3.66H58Z"/><path class="cls-1" d="M60.6,4.42h-.92V.84H58.49V.07h3.29V.84H60.6Z"/><path class="cls-1" d="M65.12,4.42l-.32-1H63.21l-.32,1h-1L63.44.05h1.13l1.54,4.37Zm-.54-1.81L64.09,1C64.05.9,64,.8,64,.73q-.1.38-.56,1.89Z"/><path class="cls-1" d="M66.66.07H68a2.61,2.61,0,0,1,1.34.26.92.92,0,0,1,.42.84,1.06,1.06,0,0,1-.18.64.73.73,0,0,1-.49.3v0a1,1,0,0,1,.6.35,1.12,1.12,0,0,1,.18.67,1.11,1.11,0,0,1-.43.93,1.86,1.86,0,0,1-1.17.33H66.66Zm.92,1.72h.54a1,1,0,0,0,.54-.12.43.43,0,0,0,.17-.38.38.38,0,0,0-.18-.36,1.17,1.17,0,0,0-.58-.11h-.49Zm0,.73V3.66h.6a.89.89,0,0,0,.56-.15.54.54,0,0,0,.18-.45q0-.54-.77-.54Z"/><path class="cls-1" d="M70.76,4.42V.07h.92V3.66h1.77v.76Z"/><path class="cls-1" d="M76.71,4.42H74.2V.07h2.51V.82H75.13v1H76.6v.76H75.13V3.66h1.58Z"/><path class="cls-1" d="M80.19,3.21a1.13,1.13,0,0,1-.42.93,1.84,1.84,0,0,1-1.18.34,2.77,2.77,0,0,1-1.23-.26V3.36a5.09,5.09,0,0,0,.75.28,2.2,2.2,0,0,0,.56.08.8.8,0,0,0,.47-.12.4.4,0,0,0,.16-.35A.38.38,0,0,0,79.21,3,.8.8,0,0,0,79,2.84a5.48,5.48,0,0,0-.56-.29,2.66,2.66,0,0,1-.6-.36,1.35,1.35,0,0,1-.32-.4,1.15,1.15,0,0,1-.12-.54,1.12,1.12,0,0,1,.39-.91A1.63,1.63,0,0,1,78.88,0a2.57,2.57,0,0,1,.65.08,4.49,4.49,0,0,1,.65.23l-.3.72a4.44,4.44,0,0,0-.58-.2,1.86,1.86,0,0,0-.45-.06.59.59,0,0,0-.4.12.4.4,0,0,0-.14.32.39.39,0,0,0,.06.21.62.62,0,0,0,.18.18,5.58,5.58,0,0,0,.59.31,2.33,2.33,0,0,1,.84.58A1.14,1.14,0,0,1,80.19,3.21Z"/><path class="cls-1" d="M83.47,4.42h-.91V.07h2.5V.82H83.47V1.95H85V2.7H83.47Z"/><path class="cls-1" d="M89.87,2.24a2.36,2.36,0,0,1-.54,1.66,2.32,2.32,0,0,1-3.07,0,2.37,2.37,0,0,1-.54-1.67A2.34,2.34,0,0,1,86.26.57,2,2,0,0,1,87.8,0a2,2,0,0,1,1.54.58A2.37,2.37,0,0,1,89.87,2.24Zm-3.18,0A1.82,1.82,0,0,0,87,3.34a1,1,0,0,0,.83.37q1.11,0,1.11-1.47T87.8.77a1,1,0,0,0-.83.37A1.81,1.81,0,0,0,86.69,2.24Z"/><path class="cls-1" d="M91.69,2.75V4.42h-.92V.07H92a2.17,2.17,0,0,1,1.31.32,1.15,1.15,0,0,1,.43,1,1.16,1.16,0,0,1-.21.68,1.4,1.4,0,0,1-.6.47l1.28,1.9h-1l-1-1.67Zm0-.75H92a1.14,1.14,0,0,0,.65-.15.52.52,0,0,0,.21-.46A.48.48,0,0,0,92.63,1,1.29,1.29,0,0,0,92,.82h-.28Z"/></svg>